<?xml version="1.0" encoding="utf-8"?>
<!-- Generator: Adobe Illustrator 23.0.5, SVG Export Plug-In . SVG Version: 6.00 Build 0)  -->
<svg version="1.1" id="Capa_1" xmlns="http://www.w3.org/2000/svg" xmlns:xlink="http://www.w3.org/1999/xlink" x="0px" y="0px"
	 viewBox="0 0 700 581" style="enable-background:new 0 0 700 581;" xml:space="preserve">
<style type="text/css">
	.st0{fill:#FFFFFF;}
</style>
<g>
	<path class="st0" d="M194.9,104.8c-3.3-3.2-7.8-5-12.4-5c-4.6,0.1-9.1,2-12.3,5.3c-23.4,24-41.8,52.5-53.9,83.8
		c-2.3,5.8-1.3,12.4,2.7,17.3s10.1,7.3,16.3,6.4c6.2-1,11.4-5.1,13.7-11c10.5-26.9,26.2-51.4,46.4-72.1c3.2-3.3,5-7.8,4.9-12.5
		C200.1,112.5,198.2,108.1,194.9,104.8L194.9,104.8z"/>
	<path class="st0" d="M350,530.8c49.7,0,98.3-14.7,139.6-42.4c41.3-27.7,73.5-67,92.4-113c18.9-46,23.8-96.6,13.9-145.3
		c-9.9-48.7-34-93.4-69.3-128.4c-35.3-35-80.3-58.7-129.1-68.1c-48.8-9.4-99.3-4.1-145.1,15.3c-5.3,2.7-8.9,7.9-9.4,13.9
		s1.9,11.7,6.6,15.4c4.7,3.7,10.9,4.8,16.5,2.8c42.7-18.1,90.1-21.9,135.2-10.9c45.1,11,85.4,36.2,115,71.9
		c29.6,35.7,46.9,80,49.4,126.3c2.5,46.3-10,92.2-35.6,130.9s-63,68-106.6,83.8s-91.2,17-135.6,3.6c-44.4-13.4-83.3-40.7-111-77.9
		c-27.7-37.2-42.6-82.4-42.6-128.8c0-6.3-3.3-12-8.8-15.2c-5.4-3.1-12.1-3.1-17.5,0c-5.4,3.1-8.8,8.9-8.8,15.2
		c0.1,66.5,26.5,130.3,73.5,177.3C219.7,504.3,283.5,530.8,350,530.8L350,530.8z"/>
	<path class="st0" d="M350,466.7c49.5,0,97-19.7,132-54.7c35-35,54.7-82.5,54.7-132S517,183,482,148c-35-35-82.5-54.7-132-54.7
		S253,113,218,148c-35,35-54.7,82.5-54.7,132c0,32.8,8.6,65,25,93.3c16.4,28.4,39.9,51.9,68.3,68.3C285,458,317.2,466.7,350,466.7
		L350,466.7z M332.5,163.3c0-6.2,3.3-12,8.8-15.2c5.4-3.1,12.1-3.1,17.5,0c5.4,3.1,8.8,8.9,8.8,15.2v107.8l86.3,64.9
		c3.7,2.8,6.2,6.9,6.8,11.5c0.7,4.6-0.5,9.3-3.3,13c-2.8,3.7-6.9,6.2-11.5,6.8s-9.3-0.5-13-3.3l-93.3-70c-4.4-3.3-7-8.5-7-14V163.3z
		"/>
</g>
</svg>
