<?xml version="1.0" encoding="utf-8"?>
<!-- Generator: Adobe Illustrator 23.0.5, SVG Export Plug-In . SVG Version: 6.00 Build 0)  -->
<svg version="1.1" id="Capa_1" xmlns="http://www.w3.org/2000/svg" xmlns:xlink="http://www.w3.org/1999/xlink" x="0px" y="0px"
	 viewBox="0 0 700 700" style="enable-background:new 0 0 700 700;" xml:space="preserve">
<path d="M481.1,333.6c4.4,6.4,4.8,14.6,1.2,21.5c-3.6,6.8-10.7,11.1-18.4,11.1H218c-7.5,0-14.5-4.1-18.2-10.7s-3.5-14.6,0.4-21.1
	l36.1-58.7l0,0c3.3-5.4,9.3-8.7,15.7-8.5c6.4,0.1,12.2,3.7,15.3,9.2l29.9,53.9l74.9-112.4c3.3-4.9,8.9-7.9,14.8-8
	c6,0,11.5,2.9,14.9,7.8L481.1,333.6z M282.1,216.2c8.4,0,16.5-3.4,22.5-9.3c6-6,9.3-14.1,9.3-22.5s-3.4-16.5-9.3-22.5
	c-6-6-14.1-9.3-22.5-9.3s-16.5,3.4-22.5,9.3c-6,6-9.3,14.1-9.3,22.5s3.4,16.5,9.3,22.5C265.6,212.8,273.7,216.2,282.1,216.2z
	 M595.6,57.6v581.5c0,9.4-3.8,18.5-10.4,25.2c-6.7,6.7-15.7,10.4-25.2,10.4H125.2c-9.4,0-18.5-3.7-25.2-10.4s-10.4-15.7-10.4-25.2
	V57.6c0-9.4,3.8-18.5,10.4-25.2c6.7-6.7,15.7-10.4,25.2-10.4H560c9.4,0,18.5,3.7,25.2,10.4C591.8,39.1,595.6,48.2,595.6,57.6z
	 M217.9,544.2c0-9.4,3.8-18.5,10.4-25.2c6.7-6.7,15.7-10.4,25.2-10.4h35.6c9.8,0,17.8-8,17.8-17.8s-8-17.8-17.8-17.8h-35.6
	c-25.4,0-48.9,13.6-61.7,35.6c-12.7,22-12.7,49.2,0,71.2s36.2,35.6,61.7,35.6h8.9c11.8,0,23.1-4.7,31.5-13.1
	c8.3-8.3,13-19.7,13-31.5v-26.7c0-4.7-1.9-9.3-5.2-12.6c-3.3-3.3-7.9-5.2-12.6-5.2h-35.6c-9.8,0-17.8,8-17.8,17.8s8,17.8,17.8,17.8
	h17.8v8.9c0,4.9-4,8.9-8.9,8.9h-8.9c-9.4,0-18.5-3.8-25.2-10.4C221.7,562.7,217.9,553.7,217.9,544.2L217.9,544.2z M378.2,490.8
	c0-9.8-8-17.8-17.8-17.8s-17.8,8-17.8,17.8v106.8c0,9.8,8,17.8,17.8,17.8s17.8-8,17.8-17.8V490.8z M520.6,490.8
	c0-4.7-1.9-9.2-5.2-12.6c-3.3-3.3-7.9-5.2-12.6-5.2H454c-10.7,0-20.9,4.3-28.4,11.8s-11.8,17.8-11.8,28.4v84.4
	c0,9.8,8,17.8,17.8,17.8s17.8-8,17.8-17.8V562H485c9.8,0,17.8-8,17.8-17.8s-8-17.8-17.8-17.8h-35.6v-13.2c0-1.2,0.5-2.4,1.4-3.3
	s2-1.4,3.3-1.4h48.8c4.7,0,9.2-1.9,12.6-5.2C518.7,500.1,520.6,495.5,520.6,490.8L520.6,490.8z M534.6,105c0-4.7-1.9-9.2-5.2-12.6
	c-3.3-3.3-7.9-5.2-12.6-5.2H168.3c-4.7,0-9.2,1.9-12.6,5.2c-3.3,3.3-5.2,7.9-5.2,12.6v296.8c0,9.8,8,17.8,17.8,17.8h348.6
	c9.8,0,17.8-8,17.8-17.8L534.6,105z"/>
</svg>
